<svg width="185" height="186" viewBox="0 0 185 186" fill="none" xmlns="http://www.w3.org/2000/svg">
<path d="M19.5204 112.62C30.3012 152.855 71.6572 176.732 111.892 165.951C152.126 155.17 176.003 113.814 165.222 73.5794C154.442 33.3449 113.085 9.46801 72.851 20.2488C32.6165 31.0296 8.73956 72.3857 19.5204 112.62Z" fill="#1DA1F2"/>
<path d="M122.697 60.5737C120.331 62.6717 117.721 63.859 114.656 65.1683C117.355 62.493 118.899 59.1511 118.834 55.2646C116.59 57.8179 113.647 59.5825 110.248 61.4692C106.784 59.4693 102.199 58.746 98.1007 59.844C88.539 62.4061 83.6939 73.4645 88.4106 81.9608C75.995 84.7996 63.4813 81.8085 53.3008 74.7762C51.033 82.704 55.6276 90.745 63.2221 93.5902C60.9455 94.2002 58.4249 93.8996 55.9043 93.5989C57.7344 100.429 64.4509 105.461 71.7687 105.452C69.6141 106.518 67.4595 107.583 65.0609 107.738C68.4682 113.169 75.1521 116.258 81.9818 114.428C77.616 119.99 70.0303 124.463 62.0459 125.626C69.9737 127.894 78.4461 128.552 86.6419 126.356C114.416 118.913 123.675 91.5441 117.03 70.3881C119.729 67.7129 121.729 64.2489 122.697 60.5737Z" fill="white"/>
</svg>
