<svg width="188" height="32" viewBox="0 0 188 32" fill="none" xmlns="http://www.w3.org/2000/svg">
<path d="M6.11635 23.1592V23.0686L15.0646 10.5126V7.66777H1.71979V11.004H10.125V11.0945L1.35773 23.573V26.4824H15.0905V23.1592H6.11635ZM26.3922 13.5513V19.8229C26.3922 21.0255 26.1078 21.9565 25.5647 22.6031C25.0086 23.2626 24.3233 23.5859 23.5215 23.5859C22.6939 23.5859 22.0991 23.3532 21.737 22.8876C21.375 22.4221 21.2069 21.5945 21.2069 20.4307V13.5513H17.7413V21.3358C17.7413 22.3057 17.8448 23.1332 18.0775 23.8316C18.3104 24.5299 18.6336 25.0859 19.0733 25.4997C19.5129 25.9135 20.0043 26.2238 20.5732 26.4178C21.1292 26.6118 21.7759 26.7022 22.4999 26.7022C23.237 26.7022 23.9353 26.56 24.5948 26.2497C25.2543 25.9393 25.8362 25.4997 26.3405 24.9048H26.3922V26.4824H29.8577V13.5513H26.3922ZM40.6681 13.3315C39.8922 13.3315 39.181 13.5255 38.5085 13.8876C37.8362 14.2497 37.2543 14.7798 36.7629 15.4522H36.7241V13.5513H33.2586V26.4824H36.7241V20.4824C36.7241 19.4997 37.0086 18.685 37.5905 18.0514C38.1724 17.4307 38.987 17.1074 40.0215 17.1074C40.2801 17.1074 40.5905 17.1203 40.9397 17.1463V13.3446C40.8879 13.3446 40.7974 13.3315 40.6681 13.3315ZM45.0776 11.7281C45.6594 11.7281 46.1637 11.5212 46.5905 11.1074C47.0043 10.6936 47.2241 10.2023 47.2241 9.60743C47.2241 9.03847 47.0043 8.53416 46.5905 8.12036C46.1637 7.70657 45.6594 7.49967 45.0776 7.49967C44.4827 7.49967 43.9655 7.70657 43.5517 8.12036C43.138 8.53416 42.9309 9.03847 42.9309 9.60743C42.9309 9.99535 43.0215 10.3574 43.2155 10.6807C43.3965 11.004 43.6551 11.2626 43.9914 11.4436C44.3276 11.6376 44.6896 11.7281 45.0776 11.7281ZM43.3447 26.4824H46.8103V13.5513H43.3447V26.4824ZM64.875 26.4824H68.625V7.66777H64.875V26.4824ZM80.2241 13.3315C79.4224 13.3315 78.6595 13.4997 77.9353 13.8229C77.2112 14.1462 76.5905 14.6118 76.0732 15.2195H76.0344V13.5513H72.5689V26.4824H76.0344V19.9782C76.0344 18.8531 76.293 17.9868 76.8232 17.3661C77.3535 16.7583 78.0646 16.4479 78.9698 16.4479C79.8103 16.4479 80.431 16.6936 80.8448 17.1721C81.2457 17.6634 81.4525 18.491 81.4525 19.6807V26.4953H84.918V18.8143C84.918 17.8445 84.8017 17.004 84.5818 16.2798C84.3491 15.5687 84.0258 14.9997 83.5991 14.5729C83.1724 14.1591 82.681 13.8488 82.125 13.6419C81.569 13.435 80.9354 13.3315 80.2241 13.3315ZM92.2629 26.7022C93.0517 26.7022 93.6983 26.6376 94.2026 26.4953C94.6939 26.366 95.1982 26.1591 95.6897 25.8876L94.7974 23.1203C94.2026 23.4307 93.6594 23.573 93.1681 23.573C92.7543 23.573 92.4698 23.4436 92.2887 23.1721C92.1078 22.9134 92.0301 22.4867 92.0301 21.9178V16.4221H95.5473V13.5513H92.0301V8.94795L88.5646 9.32295V13.5513H87.0387V16.4221H88.5646V22.3962C88.5646 23.8186 88.8879 24.8919 89.5473 25.616C90.2069 26.3402 91.112 26.7022 92.2629 26.7022ZM109.526 19.9006C109.526 18.6462 109.254 17.5212 108.737 16.5256C108.207 15.5298 107.457 14.754 106.5 14.185C105.53 13.616 104.418 13.3315 103.177 13.3315C102.272 13.3315 101.418 13.4997 100.629 13.8229C99.8276 14.1591 99.1552 14.6118 98.5862 15.1936C98.0172 15.7756 97.5776 16.4867 97.2543 17.3143C96.918 18.1419 96.7629 19.0471 96.7629 20.004C96.7629 21.3229 97.0474 22.4996 97.6293 23.5212C98.2112 24.5557 99.0129 25.3445 100.021 25.8876C101.03 26.4307 102.155 26.7022 103.422 26.7022C104.664 26.7022 105.75 26.4824 106.707 26.0428C107.651 25.6031 108.414 25.0083 109.009 24.2583L106.759 22.1634C105.944 23.1463 104.909 23.6376 103.668 23.6247C102.84 23.6247 102.129 23.3919 101.547 22.9523C100.965 22.5126 100.578 21.9178 100.371 21.142H109.435C109.487 20.9351 109.526 20.5213 109.526 19.9006ZM103.293 16.3833C104.017 16.3833 104.625 16.5902 105.103 16.991C105.569 17.3919 105.905 17.9479 106.086 18.6462H100.384C100.578 17.9221 100.927 17.3532 101.444 16.9652C101.961 16.5772 102.569 16.3833 103.293 16.3833ZM119.702 13.3315C118.926 13.3315 118.216 13.5255 117.543 13.8876C116.871 14.2497 116.289 14.7798 115.797 15.4522H115.758V13.5513H112.293V26.4824H115.758V20.4824C115.758 19.4997 116.043 18.685 116.625 18.0514C117.207 17.4307 118.021 17.1074 119.057 17.1074C119.315 17.1074 119.625 17.1203 119.975 17.1463V13.3446C119.923 13.3446 119.832 13.3315 119.702 13.3315ZM129.879 13.3315C129.078 13.3315 128.314 13.4997 127.591 13.8229C126.867 14.1462 126.245 14.6118 125.728 15.2195H125.689V13.5513H122.225V26.4824H125.689V19.9782C125.689 18.8531 125.949 17.9868 126.478 17.3661C127.009 16.7583 127.72 16.4479 128.625 16.4479C129.465 16.4479 130.087 16.6936 130.5 17.1721C130.901 17.6634 131.107 18.491 131.107 19.6807V26.4953H134.573V18.8143C134.573 17.8445 134.457 17.004 134.237 16.2798C134.004 15.5687 133.681 14.9997 133.255 14.5729C132.828 14.1591 132.337 13.8488 131.78 13.6419C131.224 13.435 130.591 13.3315 129.879 13.3315ZM142.073 26.7022C143.702 26.7022 144.943 26.3402 145.797 25.5902C146.65 24.8531 147.091 23.8833 147.091 22.6807C147.091 22.3703 147.064 22.0729 147.012 21.8143C146.845 20.9609 146.34 20.2626 145.513 19.7453C145.022 19.435 144.065 19.0212 142.643 18.491C141.956 18.2324 141.465 17.9997 141.155 17.7928C140.845 17.5859 140.703 17.3532 140.703 17.0945C140.703 16.7841 140.832 16.5514 141.09 16.3833C141.349 16.2152 141.633 16.1247 141.97 16.1247C142.461 16.1247 142.978 16.2411 143.521 16.4738C144.065 16.7065 144.569 17.0428 145.06 17.4954L146.741 14.9609C146.004 14.3919 145.255 13.9782 144.504 13.7195C143.742 13.4609 142.914 13.3315 142.008 13.3315C141.129 13.3315 140.328 13.4997 139.629 13.81C138.931 14.1333 138.375 14.5859 137.961 15.1807C137.547 15.7756 137.354 16.4479 137.354 17.2109C137.354 17.6247 137.393 17.9997 137.495 18.3359C137.587 18.685 137.728 18.9953 137.909 19.254C138.091 19.5255 138.297 19.7713 138.53 19.9782C138.763 20.198 139.034 20.3919 139.358 20.5729C139.668 20.754 139.978 20.8962 140.289 21.0255C140.599 21.1549 140.948 21.2842 141.336 21.4134C141.944 21.6204 142.397 21.7756 142.707 21.9049C143.017 22.0342 143.25 22.1764 143.431 22.3316C143.599 22.4867 143.69 22.6548 143.69 22.8488C143.69 23.1721 143.548 23.4307 143.263 23.6247C142.978 23.8316 142.591 23.9221 142.099 23.9221C140.78 23.9221 139.591 23.4178 138.517 22.4092L136.836 24.8014C138.272 26.0686 140.018 26.7022 142.073 26.7022ZM157.487 13.3315C156.647 13.3315 155.871 13.4868 155.147 13.7842C154.422 14.0945 153.802 14.5342 153.284 15.116H153.233V6.98242H149.768V26.4824H153.233V19.9264C153.233 18.7884 153.492 17.935 154.035 17.3401C154.564 16.7454 155.301 16.4479 156.258 16.4479C157.112 16.4479 157.746 16.6936 158.159 17.1592C158.573 17.6376 158.781 18.4523 158.781 19.5902V26.4953H162.259V18.7108C162.259 17.7539 162.142 16.9134 161.909 16.2152C161.677 15.5169 161.341 14.948 160.914 14.5342C160.474 14.1204 159.982 13.8229 159.414 13.629C158.845 13.435 158.211 13.3315 157.487 13.3315ZM167.457 11.7281C168.039 11.7281 168.543 11.5212 168.97 11.1074C169.384 10.6936 169.603 10.2023 169.603 9.60743C169.603 9.03847 169.384 8.53416 168.97 8.12036C168.543 7.70657 168.039 7.49967 167.457 7.49967C166.862 7.49967 166.345 7.70657 165.931 8.12036C165.517 8.53416 165.31 9.03847 165.31 9.60743C165.31 9.99535 165.401 10.3574 165.594 10.6807C165.775 11.004 166.035 11.2626 166.37 11.4436C166.707 11.6376 167.069 11.7281 167.457 11.7281ZM165.725 26.4824H169.189V13.5513H165.725V26.4824ZM180.298 13.3315C178.643 13.3315 177.336 13.9006 176.38 15.0385H176.328V13.5513H172.862V31.7195H176.328V25.0342H176.38C177.298 26.1462 178.564 26.7022 180.194 26.7022C181.074 26.7022 181.901 26.5471 182.664 26.2238C183.426 25.9135 184.086 25.4609 184.629 24.8919C185.172 24.323 185.612 23.6117 185.922 22.7841C186.232 21.9565 186.388 21.0385 186.388 20.0557C186.388 19.2799 186.284 18.5557 186.091 17.8574C185.884 17.1592 185.599 16.5385 185.237 15.9954C184.875 15.4522 184.436 14.9738 183.944 14.5729C183.439 14.1721 182.871 13.8617 182.25 13.6548C181.63 13.4479 180.97 13.3315 180.298 13.3315ZM179.561 23.5988C178.926 23.5988 178.358 23.4566 177.841 23.1721C177.323 22.8876 176.922 22.4609 176.625 21.9178C176.328 21.3747 176.185 20.7669 176.185 20.0686C176.185 19.5644 176.263 19.0859 176.431 18.6333C176.599 18.1937 176.832 17.8057 177.129 17.4825C177.413 17.1721 177.775 16.9134 178.189 16.7325C178.603 16.5514 179.069 16.4479 179.561 16.4479C180.504 16.4479 181.293 16.7841 181.927 17.4436C182.548 18.1161 182.871 18.9824 182.871 20.0686C182.871 21.116 182.56 21.9695 181.94 22.6161C181.319 23.2756 180.53 23.5988 179.561 23.5988Z" fill="black"/>
<path d="M56.222 26.886C57.2888 26.886 58.2134 26.5067 58.972 25.7481C59.7306 24.9895 60.1336 24.0886 60.1336 23.0218C60.1336 21.9787 59.7306 21.0541 58.972 20.2955C58.2134 19.5369 57.2888 19.1338 56.222 19.1338C55.1077 19.1338 54.1594 19.5132 53.4008 20.2718C52.6422 21.0304 52.2629 21.955 52.2629 23.0218C52.2629 24.1123 52.6422 25.0132 53.4008 25.7718C54.1594 26.5304 55.1077 26.886 56.222 26.886Z" fill="#E7332B"/>
</svg>
